M48
; DRILL file {KiCad (5.1.2)-1} date 5/7/2019 9:32:01 PM
; FORMAT={3:3/ absolute / metric / keep zeros}
; #@! TF.CreationDate,2019-05-07T21:32:01-04:00
; #@! TF.GenerationSoftware,Kicad,Pcbnew,(5.1.2)-1
FMAT,2
METRIC
T1C0.800
T2C1.100
T3C1.200
T4C4.300
%
G90
G05
T1
X125730Y-087376
X135890Y-087376
X143256Y-087376
X153416Y-087376
X161036Y-087376
X171196Y-087376
X112268Y-092964
X112268Y-103124
T2
X105410Y-077216
X105410Y-087376
X108966Y-077216
X108966Y-087376
T3
X100330Y-103886
X100330Y-107386
X139192Y-093726
X139192Y-101226
X100076Y-073660
X100076Y-077160
X100330Y-083932
X100330Y-087432
X100330Y-090932
X100330Y-094432
X100330Y-097932
X155956Y-093726
X155956Y-101226
X138400Y-067818
X141900Y-067818
X145400Y-067818
X148900Y-067818
X152400Y-067818
X122428Y-093726
X122428Y-101226
X172720Y-093726
X172720Y-101226
T4
X176784Y-067056
X176530Y-114046
X100076Y-114046
X100076Y-067056
T0
M30
