M48
; DRILL file {KiCad (5.1.2)-1} date 5/21/2019 8:16:30 PM
; FORMAT={3:3/ absolute / metric / keep zeros}
; #@! TF.CreationDate,2019-05-21T20:16:30-04:00
; #@! TF.GenerationSoftware,Kicad,Pcbnew,(5.1.2)-1
FMAT,2
METRIC
T1C0.800
T2C1.100
T3C1.200
T4C4.300
%
G90
G05
T1
X017050Y018512
X030480Y031496
X040640Y031496
X048006Y031496
X058166Y031496
X065786Y031496
X075946Y031496
X017050Y028672
T2
X008890Y045372
X019050Y045372
X009890Y039572
X020050Y039572
T3
X019150Y051172
X022650Y051172
X060706Y025146
X060706Y017646
X005080Y014986
X005080Y011486
X027178Y025146
X027178Y017646
X005080Y034940
X005080Y031440
X005080Y027940
X005080Y024440
X005080Y020940
X043942Y025146
X043942Y017646
X077470Y025146
X077470Y017646
X043150Y051054
X046650Y051054
X050150Y051054
X053650Y051054
X057150Y051054
T4
X081534Y051816
X081280Y004826
X004826Y004826
X004826Y051816
T0
M30
